# Blender v2.79 (sub 0) OBJ File: 'lpms-cu2.blend'
# www.blender.org
mtllib lpms-cu2.mtl
o Cube
v 1.000000 -0.486177 -0.822232
v 1.000000 -0.486177 1.177767
v -1.000000 -0.486177 1.177768
v -0.999999 -0.486177 -0.822233
v 1.000000 0.284316 -0.822232
v 1.000000 0.284316 1.177768
v -1.000000 0.284316 1.177768
v -1.000000 0.284316 -0.822232
v 0.642036 0.371520 -0.464268
v 0.642036 0.371520 0.819804
v -0.642036 0.371520 0.819804
v -0.642036 0.371520 -0.464268
v 1.330524 -0.266729 0.674410
v 0.994881 -0.266729 0.674410
v 1.330524 -0.337627 0.603573
v 0.994881 -0.337627 0.603573
v 1.344700 -0.340697 -0.188205
v 0.994881 -0.340697 -0.188205
v 1.344700 -0.264691 -0.264275
v 0.994881 -0.264691 -0.264275
v 1.352066 0.047926 -0.311290
v 0.994881 0.047926 -0.311290
v 1.352066 0.126683 -0.232599
v 0.994881 0.126683 -0.232599
v 1.332269 0.123557 0.648625
v 0.994881 0.123557 0.648625
v 1.332269 0.052084 0.720159
v 0.994881 0.052084 0.720159
v 1.246617 -0.204370 -0.538461
v 1.003571 -0.204370 -0.538461
v 1.246617 -0.143609 -0.643704
v 1.003571 -0.143609 -0.643704
v 1.246617 -0.022085 -0.643704
v 1.003571 -0.022085 -0.643704
v 1.246617 0.038676 -0.538461
v 1.003571 0.038676 -0.538461
v 1.246617 -0.022085 -0.433219
v 1.003571 -0.022085 -0.433219
v 1.246617 -0.143609 -0.433219
v 1.003571 -0.143609 -0.433219
v 1.253496 -0.211249 0.948963
v 0.996692 -0.211249 0.948963
v 1.253496 -0.147048 0.837763
v 0.996692 -0.147048 0.837763
v 1.253496 -0.018646 0.837763
v 0.996692 -0.018646 0.837763
v 1.253496 0.045555 0.948963
v 0.996692 0.045555 0.948963
v 1.253496 -0.018646 1.060162
v 0.996692 -0.018646 1.060162
v 1.253496 -0.147048 1.060162
v 0.996692 -0.147048 1.060162
vt 0.745988 0.767622
vt 0.746155 0.920750
vt 0.256386 0.920868
vt 0.256219 0.767740
vt 0.255623 0.327965
vt 0.745392 0.327847
vt 0.656221 0.391074
vt 0.345577 0.390681
vt 0.767821 0.672102
vt 0.745912 0.672267
vt 0.767301 0.327682
vt 0.745317 0.172413
vt 0.255547 0.172531
vt 0.165115 0.328130
vt 0.256143 0.672385
vt 0.165635 0.672550
vt 0.655958 0.609551
vt 0.345314 0.609158
vt 0.911604 0.411776
vt 0.918370 0.396958
vt 0.946738 0.407509
vt 0.933235 0.425866
vt 0.974707 0.420737
vt 0.980683 0.572775
vt 0.933862 0.566520
vt 0.954814 0.598959
vt 0.926206 0.607496
vt 0.922205 0.577576
vt 0.836596 0.626047
vt 0.839627 0.589661
vt 0.802035 0.625634
vt 0.816070 0.574943
vt 0.780939 0.576521
vt 0.778949 0.412552
vt 0.816546 0.416532
vt 0.812859 0.388265
vt 0.842340 0.388653
vt 0.842551 0.402109
vt 0.859239 0.327543
vt 0.868383 0.317192
vt 0.914352 0.320669
vt 0.905588 0.334126
vt 0.943847 0.347486
vt 0.920020 0.362239
vt 0.934597 0.386288
vt 0.897528 0.402825
vt 0.899451 0.385865
vt 0.841426 0.397188
vt 0.844745 0.380798
vt 0.798131 0.367173
vt 0.797994 0.340785
vt 0.835770 0.359160
vt 0.829783 0.320327
vt 0.845393 0.380833
vt 0.797423 0.367353
vt 0.797041 0.340634
vt 0.835484 0.358457
vt 0.829774 0.320625
vt 0.858472 0.327642
vt 0.868399 0.317359
vt 0.914365 0.320300
vt 0.906740 0.333353
vt 0.942819 0.348140
vt 0.919988 0.362136
vt 0.933450 0.387000
vt 0.897829 0.403057
vt 0.899781 0.385544
vt 0.840681 0.396931
vn 0.0000 -1.0000 -0.0000
vn -0.0000 0.9716 0.2367
vn 1.0000 -0.0000 0.0000
vn -0.0000 -0.0000 1.0000
vn -1.0000 -0.0000 -0.0000
vn 0.0000 0.0000 -1.0000
vn -0.0000 1.0000 0.0000
vn 0.2367 0.9716 0.0000
vn -0.2367 0.9716 0.0000
vn 0.0000 0.9716 -0.2367
vn 0.0000 -0.7068 0.7074
vn -0.0000 -1.0000 0.0039
vn -0.0000 -0.7074 -0.7068
vn -0.0000 -0.1487 -0.9889
vn -0.0000 0.7068 -0.7074
vn 0.0000 1.0000 0.0035
vn 0.0000 0.7074 0.7068
vn 0.0000 -0.1420 0.9899
vn 0.9998 -0.0101 0.0177
vn 0.0000 -0.8660 -0.5000
vn 0.0000 0.8660 -0.5000
vn -0.0000 0.8660 0.5000
vn 0.0000 -0.8660 0.5000
usemtl Material
s off
f 1/1/1 2/2/1 3/3/1 4/4/1
f 7/5/2 6/6/2 10/7/2 11/8/2
f 1/9/3 5/10/3 6/6/3 2/11/3
f 2/12/4 6/6/4 7/5/4 3/13/4
f 3/14/5 7/5/5 8/15/5 4/16/5
f 5/10/6 1/1/6 4/4/6 8/15/6
f 9/17/7 12/18/7 11/8/7 10/7/7
f 6/6/8 5/10/8 9/17/8 10/7/8
f 8/15/9 7/5/9 11/8/9 12/18/9
f 5/10/10 8/15/10 12/18/10 9/17/10
f 13/19/11 14/20/11 16/21/11 15/22/11
f 15/22/12 16/23/12 18/24/12 17/25/12
f 17/25/13 18/26/13 20/27/13 19/28/13
f 19/28/14 20/27/14 22/29/14 21/30/14
f 21/30/15 22/29/15 24/31/15 23/32/15
f 23/32/16 24/33/16 26/34/16 25/35/16
f 25/35/17 26/36/17 28/37/17 27/38/17
f 27/38/18 28/37/18 14/20/18 13/19/18
f 13/19/19 15/22/19 17/25/19 19/28/19 21/30/19 23/32/19 25/35/19 27/38/19
f 29/39/20 30/40/20 32/41/20 31/42/20
f 31/42/6 32/41/6 34/43/6 33/44/6
f 33/44/21 34/45/21 36/46/21 35/47/21
f 35/47/22 36/46/22 38/48/22 37/49/22
f 37/49/4 38/50/4 40/51/4 39/52/4
f 39/52/23 40/51/23 30/53/23 29/39/23
f 29/39/3 31/42/3 33/44/3 35/47/3 37/49/3 39/52/3
f 41/54/20 42/55/20 44/56/20 43/57/20
f 43/57/6 44/56/6 46/58/6 45/59/6
f 45/59/21 46/60/21 48/61/21 47/62/21
f 47/62/22 48/61/22 50/63/22 49/64/22
f 49/64/4 50/65/4 52/66/4 51/67/4
f 51/67/23 52/66/23 42/68/23 41/54/23
f 41/54/3 43/57/3 45/59/3 47/62/3 49/64/3 51/67/3
